SplineFontDB: 3.2
FontName: ehtaplen
FullName: ehtaplen
FamilyName: ehtaplen
Weight: Regular
Copyright: Copyright (c) 2023, Mikanixonable
Version: 001.000
ItalicAngle: 0
UnderlinePosition: -101
UnderlineWidth: 51
Ascent: 1024
Descent: 0
InvalidEm: 0
sfntRevision: 0x00010000
woffMajor: 1
woffMinor: 0
LayerCount: 2
Layer: 0 0 "+gMyXYgAA" 1
Layer: 1 0 "+Uk2XYgAA" 0
XUID: [1021 316 269103086 3723]
StyleMap: 0x0000
FSType: 0
OS2Version: 4
OS2_WeightWidthSlopeOnly: 0
OS2_UseTypoMetrics: 1
CreationTime: 1673269574
ModificationTime: 1701196452
PfmFamily: 17
TTFWeight: 400
TTFWidth: 5
LineGap: 92
VLineGap: 0
Panose: 2 0 5 3 0 0 0 0 0 0
OS2TypoAscent: 1024
OS2TypoAOffset: 0
OS2TypoDescent: 0
OS2TypoDOffset: 0
OS2TypoLinegap: 92
OS2WinAscent: 702
OS2WinAOffset: 0
OS2WinDescent: 245
OS2WinDOffset: 0
HheadAscent: 702
HheadAOffset: 0
HheadDescent: -245
HheadDOffset: 0
OS2SubXSize: 665
OS2SubYSize: 716
OS2SubXOff: 0
OS2SubYOff: 143
OS2SupXSize: 665
OS2SupYSize: 716
OS2SupXOff: 0
OS2SupYOff: 491
OS2StrikeYSize: 51
OS2StrikeYPos: 265
OS2Vendor: 'PfEd'
OS2CodePages: 00000001.00000000
OS2UnicodeRanges: 00000000.02000000.04000000.00000000
MarkAttachClasses: 1
DEI: 91125
LangName: 1033 "" "" "" "" "" "Version 001.000"
Encoding: UnicodeFull
UnicodeInterp: none
NameList: AGL For New Fonts
DisplaySize: -48
AntiAlias: 1
FitToEm: 0
WinInfo: 984525 25 18
BeginPrivate: 5
BlueShift 1 0
StdHW 4 [81]
StdVW 4 [81]
StemSnapH 16 [77 79 81 82 83]
StemSnapV 10 [81 84 85]
EndPrivate
BeginChars: 1114113 109

StartChar: .notdef
Encoding: 1114112 -1 0
Width: 512
GlyphClass: 1
Flags: MW
HStem: 0 51<102 410 102 461> 631 51<102 410 102 102>
VStem: 51 51<51 51 51 631> 410 51<51 631 631 631>
LayerCount: 2
Fore
SplineSet
51 0 m 1
 51 682 l 1
 461 682 l 1
 461 0 l 1
 51 0 l 1
102 51 m 1
 410 51 l 1
 410 631 l 1
 102 631 l 1
 102 51 l 1
EndSplineSet
EndChar

StartChar: uF0600
Encoding: 984576 984576 1
Width: 160
GlyphClass: 1
Flags: MW
VStem: 40.96 81.9199<0 532.48 0 532.48>
LayerCount: 2
Fore
SplineSet
122.879882812 532.48046875 m 1
 40.9599609375 532.48046875 l 1
 40.9599609375 0 l 1
 122.879882812 0 l 1
 122.879882812 532.48046875 l 1
EndSplineSet
EndChar

StartChar: uF0601
Encoding: 984577 984577 2
Width: 480
GlyphClass: 1
Flags: MW
HStem: 0 81.9199<122.88 445.428 35.8281 35.8281>
LayerCount: 2
Fore
SplineSet
202.08203125 544.467773438 m 1
 279.173828125 516.759765625 l 1
 122.879882812 81.919921875 l 1
 445.427734375 81.919921875 l 1
 445.427734375 0 l 1
 35.828125 0 l 1
 35.828125 81.919921875 l 1
 202.08203125 544.467773438 l 1
EndSplineSet
EndChar

StartChar: uF0602
Encoding: 984578 984578 3
Width: 480
GlyphClass: 1
Flags: MW
HStem: 204.8 81.9199<40.96 450.56>
LayerCount: 2
Fore
SplineSet
40.9599609375 286.719726562 m 1
 40.9599609375 204.799804688 l 1
 450.559570312 204.799804688 l 1
 450.559570312 286.719726562 l 1
 40.9599609375 286.719726562 l 1
EndSplineSet
EndChar

StartChar: uF0603
Encoding: 984579 984579 4
Width: 500
GlyphClass: 1
Flags: MW
HStem: 204.8 81.9199<140.702 348.16 40.96 40.96>
LayerCount: 2
Fore
SplineSet
227.896484375 555.84765625 m 1
 261.536132812 532.48046875 l 1
 295.17578125 509.112304688 l 1
 140.702148438 286.719726562 l 1
 450.559570312 286.719726562 l 1
 450.559570312 204.799804688 l 1
 278.528320312 -24.576171875 l 1
 212.9921875 24.576171875 l 1
 348.16015625 204.799804688 l 1
 40.9599609375 204.799804688 l 1
 40.9599609375 286.719726562 l 1
 40.9599609375 286.721679688 l 1
 227.896484375 555.84765625 l 1
EndSplineSet
EndChar

StartChar: uF0604
Encoding: 984580 984580 5
Width: 480
GlyphClass: 1
Flags: MW
HStem: 0 81.9199<147.84 440.704 35.2002 35.2002> 452.608 79.8721<40.3203 336.256 40.3203 444.8 40.3203 444.8>
LayerCount: 2
Fore
SplineSet
40.3203125 532.48046875 m 1
 444.799804688 532.48046875 l 1
 444.799804688 452.608398438 l 1
 147.83984375 81.919921875 l 1
 440.704101562 81.919921875 l 1
 440.704101562 0 l 1
 35.2001953125 0 l 1
 35.2001953125 81.919921875 l 1
 336.255859375 452.608398438 l 1
 40.3203125 452.608398438 l 1
 40.3203125 532.48046875 l 1
EndSplineSet
EndChar

StartChar: uF0605
Encoding: 984581 984581 6
Width: 640
GlyphClass: 1
Flags: MW
HStem: 0 21G<264.704 320 320 320.002> 448.612 83.8633
VStem: 33.2793 81.9199<243.371 289.109 243.371 294.571> 279.039 81.9199<83.8643 122.88 122.88 448.612> 524.801 81.9199<243.371 289.108>
LayerCount: 2
Fore
SplineSet
320 532.48046875 m 0
 430.58203125 532.481445312 506.85546875 497.268554688 551.287109375 443.322265625 c 0
 595.72265625 389.372070312 606.720703125 322.903320312 606.720703125 266.240234375 c 0
 606.720703125 209.579101562 595.7265625 143.112304688 551.296875 89.166015625 c 0
 525.8046875 58.2109375 489.806640625 33.4462890625 442.87890625 17.9404296875 c 1
 442.87890625 105.43359375 l 1
 462.4765625 115.333007812 476.912109375 127.701171875 488.0625 141.240234375 c 0
 515.3125 174.329101562 524.80078125 220.500976562 524.80078125 266.240234375 c 0
 524.80078125 311.9765625 515.306640625 358.150390625 488.0546875 391.240234375 c 0
 465.095703125 419.115234375 428.275390625 442.0546875 360.958984375 448.612304688 c 1
 360.958984375 122.879882812 l 1
 360.958984375 83.8623046875 l 1
 360.958984375 1.7236328125 l 1
 347.8671875 0.59375 334.224609375 0.0009765625 320.001953125 0 c 2
 320 0 l 2
 209.408203125 0 133.130859375 35.2109375 88.701171875 89.162109375 c 0
 44.271484375 143.112304688 33.279296875 209.579101562 33.279296875 266.240234375 c 0
 33.279296875 322.901367188 44.271484375 389.3671875 88.701171875 443.318359375 c 0
 133.130859375 497.268554688 209.408203125 532.48046875 320 532.48046875 c 0
279.0390625 448.616210938 m 1
 211.716796875 442.059570312 174.89453125 419.119140625 151.9375 391.2421875 c 0
 124.6875 358.153320312 115.19921875 311.978515625 115.19921875 266.240234375 c 0
 115.19921875 220.500976562 124.6875 174.327148438 151.9375 141.23828125 c 0
 174.89453125 113.361328125 211.716796875 90.4208984375 279.0390625 83.8642578125 c 1
 279.0390625 448.616210938 l 1
EndSplineSet
EndChar

StartChar: uF0606
Encoding: 984582 984582 7
Width: 640
GlyphClass: 1
Flags: MW
HStem: 0 81.9199<186.363 207.98 186.363 217.083 432.123 453.741> 208.896 77.8232<116.884 116.884 116.884 277.46 362.644 523.542 362.644 362.644> 450.56 81.9209<187.5 206.843 433.261 452.603>
VStem: 277.781 84.54<286.72 286.72>
LayerCount: 2
Fore
SplineSet
197.171875 532.48046875 m 0
 239.26953125 532.48046875 275.70703125 512.639648438 299.099609375 485.782226562 c 0
 307.288085938 476.380859375 314.143554688 466.282226562 320.051757812 455.795898438 c 1
 325.959960938 466.282226562 332.815429688 476.380859375 341.00390625 485.782226562 c 0
 364.396484375 512.639648438 400.833984375 532.48046875 442.931640625 532.48046875 c 0
 485.029296875 532.48046875 521.466796875 512.639648438 544.859375 485.782226562 c 0
 568.251953125 458.923828125 581.29296875 426.5859375 589.967773438 394.778320312 c 0
 603.676757812 342.530273438 606.771484375 286.719726562 602.67578125 208.896484375 c 1
 362.643554688 208.896484375 l 1
 364.250976562 188.59765625 367.42578125 161.483398438 374.26953125 140.952148438 c 0
 380.510742188 122.229492188 389.365234375 106.841796875 399.719726562 97.25390625 c 0
 410.07421875 87.6669921875 421.313476562 81.919921875 442.931640625 81.919921875 c 0
 464.549804688 81.919921875 475.7890625 87.6669921875 486.143554688 97.25390625 c 0
 492.920898438 103.529296875 499.038085938 112.325195312 504.217773438 122.879882812 c 1
 591.77734375 122.879882812 l 1
 590.9921875 120.270507812 590.180664062 117.66015625 589.309570312 115.047851562 c 0
 580.190429688 87.6904296875 566.004882812 59.55859375 541.799804688 37.146484375 c 0
 517.59375 14.7333984375 482.75390625 0 442.931640625 0 c 0
 403.109375 0 368.26953125 14.7333984375 344.063476562 37.146484375 c 0
 334.619140625 45.890625 326.739257812 55.51953125 320.051757812 65.6201171875 c 1
 313.364257812 55.51953125 305.483398438 45.890625 296.040039062 37.146484375 c 0
 271.833984375 14.7333984375 236.994140625 0 197.171875 0 c 0
 157.349609375 0 122.508789062 14.7333984375 98.3037109375 37.146484375 c 0
 74.0986328125 59.55859375 59.9130859375 87.6904296875 50.7939453125 115.047851562 c 0
 35.7060546875 162.104492188 33.33203125 204.799804688 37.427734375 286.719726562 c 1
 277.78125 286.719726562 l 1
 276.325195312 312.462890625 273.146484375 343.994140625 265.17578125 373.221679688 c 0
 258.490234375 397.734375 248.491210938 419.15625 237.323242188 431.977539062 c 0
 226.15625 444.799804688 216.513671875 450.559570312 197.171875 450.559570312 c 0
 177.829101562 450.559570312 168.1875 444.799804688 157.01953125 431.977539062 c 0
 145.852539062 419.15625 135.852539062 397.734375 129.16796875 373.221679688 c 0
 128.754882812 371.70703125 128.407226562 370.166015625 128.01953125 368.639648438 c 2
 43.9755859375 368.639648438 l 1
 45.728515625 377.296875 47.75390625 386.044921875 50.1357421875 394.778320312 c 0
 58.810546875 426.5859375 71.8515625 458.923828125 95.2431640625 485.782226562 c 0
 118.635742188 512.639648438 155.07421875 532.48046875 197.171875 532.48046875 c 0
442.931640625 450.559570312 m 0
 423.58984375 450.559570312 413.947265625 444.799804688 402.779296875 431.977539062 c 0
 391.612304688 419.15625 381.61328125 397.734375 374.927734375 373.221679688 c 0
 366.956054688 343.994140625 363.778320312 312.462890625 362.321289062 286.719726562 c 1
 523.541992188 286.719726562 l 1
 522.084960938 312.462890625 518.907226562 343.994140625 510.935546875 373.221679688 c 0
 504.25 397.734375 494.250976562 419.15625 483.083984375 431.977539062 c 0
 471.916015625 444.799804688 462.2734375 450.559570312 442.931640625 450.559570312 c 0
116.883789062 208.896484375 m 1
 118.491210938 188.59765625 121.666015625 161.483398438 128.509765625 140.952148438 c 0
 134.75 122.229492188 143.60546875 106.841796875 153.959960938 97.25390625 c 0
 164.314453125 87.6669921875 175.553710938 81.919921875 197.171875 81.919921875 c 0
 218.7890625 81.919921875 230.029296875 87.6669921875 240.383789062 97.25390625 c 0
 250.73828125 106.841796875 259.592773438 122.229492188 265.833984375 140.952148438 c 0
 272.677734375 161.483398438 275.852539062 188.59765625 277.459960938 208.896484375 c 1
 116.883789062 208.896484375 l 1
EndSplineSet
EndChar

StartChar: uF0607
Encoding: 984583 984583 8
Width: 560
GlyphClass: 1
Flags: MW
HStem: 2.14355 82.8926<239.039 239.039 239.039 320.959>
VStem: 34.2402 81.9199<229.831 286.72 229.831 286.72> 239.039 81.9199<-245.76 2.14355 -245.76 2.14355 85.0361 447.918> 443.84 81.9199<229.831 332.458>
LayerCount: 2
Fore
SplineSet
239.0390625 532.48046875 m 1
 280 532.48046875 l 2
 300.48046875 532.48046875 360.3125 533.581054688 417.65234375 501.725585938 c 0
 474.9921875 469.87109375 525.759765625 400.04296875 525.759765625 286.719726562 c 0
 525.759765625 154.73828125 478.2109375 76.087890625 420.48046875 37.599609375 c 0
 385.490234375 14.2744140625 348.96875 5.5068359375 320.958984375 2.1435546875 c 1
 320.958984375 -245.759765625 l 1
 239.0390625 -245.759765625 l 1
 239.0390625 2.1435546875 l 1
 211.03125 5.5068359375 174.5078125 14.2744140625 139.51953125 37.599609375 c 0
 81.7890625 76.087890625 34.240234375 154.73828125 34.240234375 286.719726562 c 1
 116.16015625 286.719726562 l 1
 116.16015625 172.942382812 150.53125 128.711914062 184.958984375 105.759765625 c 0
 202.638671875 93.9736328125 221.78515625 88.0537109375 239.0390625 85.0361328125 c 1
 239.0390625 532.48046875 l 1
320.958984375 447.91796875 m 1
 320.958984375 85.0361328125 l 1
 338.212890625 88.0537109375 357.359375 93.9736328125 375.0390625 105.759765625 c 0
 409.46875 128.711914062 443.83984375 172.942382812 443.83984375 286.719726562 c 0
 443.83984375 378.197265625 412.6875 410.76953125 377.8671875 430.114257812 c 0
 359.572265625 440.278320312 339.205078125 445.33984375 320.958984375 447.91796875 c 1
EndSplineSet
EndChar

StartChar: uF0608
Encoding: 984584 984584 9
Width: 480
GlyphClass: 1
Flags: MW
HStem: 0.00195312 81.916<245 245> 204.8 81.9199<125.008 286.72 125.008 125.008 286.72 366.544 366.544 367.038 124.482 449.238> 450.56 81.9209<229.546 261.973>
VStem: 40.96 84.0479<204.8 256>
LayerCount: 2
Fore
SplineSet
245.759765625 532.48046875 m 0
 295.252929688 532.48046875 337.126953125 515.821289062 367.208007812 489.91796875 c 0
 397.2890625 464.014648438 415.739257812 430.653320312 427.614257812 397.998046875 c 0
 451.36328125 332.686523438 450.559570312 266.240234375 450.559570312 245.759765625 c 0
 450.559570312 237.443359375 450.708984375 222.880859375 449.23828125 204.799804688 c 1
 366.543945312 204.799804688 l 1
 286.719726562 204.799804688 l 1
 125.0078125 204.799804688 l 1
 127.119140625 185.74609375 131.295898438 164.302734375 139.784179688 145.278320312 c 0
 155.668945312 109.67578125 177.71875 82.572265625 246.15234375 81.91796875 c 0
 300.10546875 81.40234375 324.754882812 98.0830078125 340.59375 122.879882812 c 1
 431.5078125 122.879882812 l 1
 429.986328125 118.869140625 428.375 114.852539062 426.599609375 110.83984375 c 0
 401.567382812 54.2568359375 341.09375 -0.9130859375 245.368164062 0.001953125 c 0
 149.903320312 0.9150390625 90.0322265625 55.732421875 64.9716796875 111.8984375 c 0
 39.912109375 168.063476562 40.9599609375 225.299804688 40.9599609375 245.759765625 c 0
 40.9599609375 266.240234375 40.15625 332.686523438 63.90625 397.998046875 c 0
 75.7802734375 430.653320312 94.2314453125 464.014648438 124.311523438 489.91796875 c 0
 154.392578125 515.821289062 196.266601562 532.48046875 245.759765625 532.48046875 c 0
245.759765625 450.559570312 m 0
 213.333007812 450.559570312 193.766601562 441.619140625 177.767578125 427.841796875 c 0
 161.76953125 414.065429688 149.499023438 393.666015625 140.893554688 370.001953125 c 0
 130.817382812 342.291992188 126.44140625 311.62890625 124.482421875 286.719726562 c 1
 367.038085938 286.719726562 l 1
 365.078125 311.62890625 360.702148438 342.291992188 350.625976562 370.001953125 c 0
 342.020507812 393.666015625 329.750976562 414.065429688 313.751953125 427.841796875 c 0
 297.752929688 441.619140625 278.186523438 450.559570312 245.759765625 450.559570312 c 0
EndSplineSet
EndChar

StartChar: uF0609
Encoding: 984585 984585 10
Width: 800
GlyphClass: 1
Flags: MW
HStem: 0 21G<216.312 216.312 583.688 583.688>
VStem: 357.204 85.5918<381.412 381.412>
LayerCount: 2
Fore
SplineSet
359.040039062 691.389648438 m 1
 440.959960938 691.389648438 l 1
 442.795898438 381.412109375 l 1
 738.171875 475.454101562 l 1
 763.486328125 397.543945312 l 1
 469.24609375 300.009765625 l 1
 649.67578125 48.5439453125 l 1
 649.959960938 48.150390625 l 1
 583.688476562 0 l 1
 400 249.700195312 l 1
 216.3125 0 l 1
 150.040039062 48.150390625 l 1
 150.32421875 48.5439453125 l 1
 330.75390625 300.009765625 l 1
 36.513671875 397.543945312 l 1
 61.828125 475.454101562 l 1
 357.204101562 381.412109375 l 1
 359.040039062 691.389648438 l 1
EndSplineSet
EndChar

StartChar: uF060A
Encoding: 984586 984586 11
Width: 800
GlyphClass: 1
Flags: MW
VStem: 368.64 81.9199<-41.166 -41.166>
LayerCount: 2
Fore
SplineSet
368.639648438 696.526367188 m 1
 450.559570312 696.526367188 l 1
 452.047851562 401.204101562 l 1
 708.549804688 547.576171875 l 1
 749.509765625 476.631835938 l 1
 749.15234375 476.423828125 l 1
 494.498046875 327.6796875 l 1
 749.15234375 178.935546875 l 1
 749.509765625 178.727539062 l 1
 708.549804688 107.784179688 l 1
 452.047851562 254.15625 l 1
 450.559570312 -41.166015625 l 1
 368.639648438 -41.166015625 l 1
 367.15234375 254.15625 l 1
 110.650390625 107.784179688 l 1
 69.6904296875 178.727539062 l 1
 70.0478515625 178.935546875 l 1
 324.702148438 327.6796875 l 1
 70.0478515625 476.423828125 l 1
 69.6904296875 476.631835938 l 1
 110.650390625 547.576171875 l 1
 367.15234375 401.204101562 l 1
 368.639648438 696.526367188 l 1
EndSplineSet
EndChar

StartChar: uF060B
Encoding: 984587 984587 12
Width: 800
GlyphClass: 1
Flags: MW
HStem: 204.8 81.9199<731.429 731.429>
LayerCount: 2
Fore
SplineSet
731.428710938 286.719726562 m 1
 731.428710938 204.799804688 l 1
 421.450195312 202.963867188 l 1
 515.481445312 -92.365234375 l 1
 437.583007812 -117.657226562 l 1
 340.048828125 176.513671875 l 1
 88.5830078125 -3.8916015625 l 1
 88.1884765625 -4.2001953125 l 1
 40.0390625 62.072265625 l 1
 289.73828125 245.759765625 l 1
 40.0390625 429.448242188 l 1
 88.1884765625 495.719726562 l 1
 88.5830078125 495.435546875 l 1
 340.048828125 315.005859375 l 1
 437.583007812 609.24609375 l 1
 515.4921875 583.931640625 l 1
 421.450195312 288.555664062 l 1
 731.428710938 286.719726562 l 1
EndSplineSet
EndChar

StartChar: uF060C
Encoding: 984588 984588 13
Width: 800
GlyphClass: 1
Flags: MW
VStem: 366.804 81.9199<-213.931 -213.931>
LayerCount: 2
Fore
SplineSet
448.723632812 -213.930664062 m 1
 366.803710938 -213.930664062 l 1
 364.967773438 96.046875 l 1
 69.591796875 2.0048828125 l 1
 44.2783203125 79.9150390625 l 1
 338.517578125 177.44921875 l 1
 158.087890625 428.915039062 l 1
 157.803710938 429.30859375 l 1
 224.076171875 477.458984375 l 1
 407.763671875 227.758789062 l 1
 591.452148438 477.458984375 l 1
 657.723632812 429.30859375 l 1
 657.440429688 428.915039062 l 1
 477.009765625 177.44921875 l 1
 771.25 79.9150390625 l 1
 745.935546875 2.0048828125 l 1
 450.559570312 96.046875 l 1
 448.723632812 -213.930664062 l 1
EndSplineSet
EndChar

StartChar: uF060D
Encoding: 984589 984589 14
Width: 800
GlyphClass: 1
Flags: MW
HStem: 204.8 81.9199<40.0391 40.0391>
LayerCount: 2
Fore
SplineSet
40.0390625 204.799804688 m 1
 40.0390625 286.719726562 l 1
 350.016601562 288.555664062 l 1
 255.974609375 583.931640625 l 1
 333.884765625 609.24609375 l 1
 431.418945312 315.005859375 l 1
 682.884765625 495.435546875 l 1
 683.278320312 495.719726562 l 1
 731.428710938 429.448242188 l 1
 481.728515625 245.759765625 l 1
 731.428710938 62.072265625 l 1
 683.278320312 -4.1982421875 l 1
 682.884765625 -3.916015625 l 1
 431.418945312 176.513671875 l 1
 333.884765625 -117.657226562 l 1
 255.974609375 -92.412109375 l 1
 350.016601562 202.963867188 l 1
 40.0390625 204.799804688 l 1
EndSplineSet
EndChar

StartChar: uF060E
Encoding: 984590 984590 15
Width: 480
GlyphClass: 1
Flags: HMW
VStem: 200.193 85.1533<259.595 259.595>
LayerCount: 2
Fore
SplineSet
201.809570312 532.721679688 m 1
 283.73046875 532.721679688 l 1
 283.73046875 532.48046875 283.73046875 532.48046875 285.346679688 259.594726562 c 1
 444.580078125 37.677734375 l 1
 378.305664062 -10.4716796875 l 1
 242.76953125 173.772460938 l 1
 107.234375 -10.4716796875 l 1
 40.9599609375 37.677734375 l 1
 200.193359375 259.594726562 l 1
 201.809570312 532.48046875 201.809570312 532.721679688 201.809570312 532.721679688 c 1
EndSplineSet
EndChar

StartChar: uF0618
Encoding: 984600 984600 16
Width: 800
GlyphClass: 1
Flags: MW
HStem: 0.000976562 81.9199<237.154 562.847 237.154 622.364 177.637 562.847>
LayerCount: 2
Fore
SplineSet
400 684.369140625 m 1
 759.793945312 422.962890625 l 1
 622.364257812 0.0009765625 l 1
 177.63671875 0.0009765625 l 1
 40.2060546875 422.962890625 l 1
 375.924804688 666.876953125 l 1
 400 684.369140625 l 1
400 583.108398438 m 1
 136.510742188 391.672851562 l 1
 237.154296875 81.9208984375 l 1
 562.846679688 81.9208984375 l 1
 663.490234375 391.672851562 l 1
 400 583.108398438 l 1
EndSplineSet
EndChar

StartChar: uF0619
Encoding: 984601 984601 17
Width: 480
GlyphClass: 1
Flags: HMW
LayerCount: 2
Fore
SplineSet
35.2001953125 409.599609375 m 1
 444.799804688 409.599609375 l 1
 444.799804688 368.639648438 l 1
 444.799804688 327.6796875 l 1
 444.799804688 81.919921875 l 1
 444.799804688 40.9599609375 l 1
 444.799804688 0 l 1
 35.2001953125 0 l 1
 35.2001953125 40.9599609375 l 1
 35.2001953125 81.919921875 l 1
 35.2001953125 327.6796875 l 1
 35.2001953125 368.639648438 l 1
 35.2001953125 409.599609375 l 1
117.120117188 327.6796875 m 1
 117.120117188 81.919921875 l 1
 362.879882812 81.919921875 l 1
 362.879882812 327.6796875 l 1
 117.120117188 327.6796875 l 1
EndSplineSet
EndChar

StartChar: uF061A
Encoding: 984602 984602 18
Width: 800
GlyphClass: 1
Flags: MW
VStem: 62.582 81.9199<82.9141 408.606 82.9141 468.124 82.9141 468.124>
LayerCount: 2
Fore
SplineSet
485.543945312 605.553710938 m 1
 729.458007812 269.8359375 l 1
 746.950195312 245.759765625 l 1
 485.543945312 -114.034179688 l 1
 62.58203125 23.396484375 l 1
 62.58203125 468.124023438 l 1
 485.543945312 605.553710938 l 1
454.25390625 509.25 m 1
 144.501953125 408.606445312 l 1
 144.501953125 82.9140625 l 1
 454.25390625 -17.73046875 l 1
 645.690429688 245.759765625 l 1
 454.25390625 509.25 l 1
EndSplineSet
EndChar

StartChar: uF061B
Encoding: 984603 984603 19
Width: 800
GlyphClass: 1
Flags: MW
HStem: 387.978 81.9209<246.754 246.754 246.754 572.446>
LayerCount: 2
Fore
SplineSet
187.236328125 469.8984375 m 1
 631.963867188 469.8984375 l 1
 769.393554688 46.935546875 l 1
 433.67578125 -196.977539062 l 1
 409.599609375 -214.469726562 l 1
 49.8056640625 46.935546875 l 1
 187.236328125 469.8984375 l 1
246.75390625 387.977539062 m 1
 146.110351562 78.2255859375 l 1
 409.599609375 -113.209960938 l 1
 673.08984375 78.2255859375 l 1
 572.446289062 387.977539062 l 1
 246.75390625 387.977539062 l 1
EndSplineSet
EndChar

StartChar: uF061C
Encoding: 984604 984604 20
Width: 800
GlyphClass: 1
Flags: MW
VStem: 633.738 81.9199<82.9141 408.606 408.606 408.606>
LayerCount: 2
Fore
SplineSet
292.696289062 605.553710938 m 1
 715.658203125 468.124023438 l 1
 715.658203125 23.396484375 l 1
 292.696289062 -114.034179688 l 1
 48.7822265625 221.68359375 l 1
 31.2900390625 245.759765625 l 1
 292.696289062 605.553710938 l 1
323.986328125 509.25 m 1
 132.549804688 245.759765625 l 1
 323.986328125 -17.73046875 l 1
 633.73828125 82.9140625 l 1
 633.73828125 408.606445312 l 1
 323.986328125 509.25 l 1
EndSplineSet
EndChar

StartChar: uF0610
Encoding: 984592 984592 21
Width: 480
Flags: HW
LayerCount: 2
Fore
SplineSet
108.005859375 533.467773438 m 1
 259.850585938 286.719726562 l 1
 441.76171875 286.719726562 l 1
 441.76171875 204.799804688 l 1
 259.850585938 204.799804688 l 1
 108.005859375 -41.9482421875 l 1
 38.23828125 0.98828125 l 1
 188.868164062 245.759765625 l 1
 38.23828125 490.532226562 l 1
 108.005859375 533.467773438 l 1
EndSplineSet
EndChar

StartChar: uF0611
Encoding: 984593 984593 22
Width: 480
Flags: HW
LayerCount: 2
Fore
SplineSet
283.73046875 -10.4716796875 m 1
 201.809570312 -10.4716796875 l 1
 201.809570312 -10.23046875 201.809570312 -10.23046875 200.193359375 262.655273438 c 1
 40.9599609375 484.572265625 l 1
 107.234375 532.721679688 l 1
 242.76953125 348.477539062 l 1
 378.305664062 532.721679688 l 1
 444.580078125 484.572265625 l 1
 285.346679688 262.655273438 l 1
 283.73046875 -10.23046875 283.73046875 -10.4716796875 283.73046875 -10.4716796875 c 1
EndSplineSet
EndChar

StartChar: uF0612
Encoding: 984594 984594 23
Width: 480
Flags: HW
LayerCount: 2
Fore
SplineSet
371.994140625 -0.98828125 m 1
 220.150390625 245.759765625 l 1
 38.23828125 245.759765625 l 1
 38.23828125 327.6796875 l 1
 220.150390625 327.6796875 l 1
 371.994140625 574.427734375 l 1
 441.76171875 531.4921875 l 1
 291.131835938 286.719726562 l 1
 441.76171875 41.9482421875 l 1
 371.994140625 -0.98828125 l 1
EndSplineSet
EndChar

StartChar: uF060F
Encoding: 984591 984591 24
Width: 460
Flags: HW
LayerCount: 2
Fore
SplineSet
66.16015625 81.919921875 m 1
 393.83984375 81.919921875 l 1
 393.83984375 0 l 1
 66.16015625 0 l 1
 66.16015625 81.919921875 l 1
66.16015625 286.719726562 m 1
 393.83984375 286.719726562 l 1
 393.83984375 204.799804688 l 1
 66.16015625 204.799804688 l 1
 66.16015625 286.719726562 l 1
66.16015625 491.51953125 m 1
 393.83984375 491.51953125 l 1
 393.83984375 409.599609375 l 1
 66.16015625 409.599609375 l 1
 66.16015625 491.51953125 l 1
EndSplineSet
EndChar

StartChar: uF0613
Encoding: 984595 984595 25
Width: 480
Flags: HW
LayerCount: 2
Fore
SplineSet
199.040039062 532.48046875 m 1
 280.959960938 532.48046875 l 1
 280.959960938 81.919921875 l 1
 444.799804688 81.919921875 l 1
 444.799804688 0 l 1
 280.959960938 0 l 1
 199.040039062 0 l 1
 35.2001953125 0 l 1
 35.2001953125 81.919921875 l 1
 199.040039062 81.919921875 l 1
 199.040039062 532.48046875 l 1
EndSplineSet
EndChar

StartChar: uF0614
Encoding: 984596 984596 26
Width: 480
Flags: HW
LayerCount: 2
Fore
SplineSet
199.040039062 532.48046875 m 1
 280.959960938 532.48046875 l 1
 280.959960938 286.719726562 l 1
 444.799804688 286.719726562 l 1
 444.799804688 204.799804688 l 1
 280.959960938 204.799804688 l 1
 280.959960938 0 l 1
 199.040039062 0 l 1
 199.040039062 204.799804688 l 1
 35.2001953125 204.799804688 l 1
 35.2001953125 286.719726562 l 1
 199.040039062 286.719726562 l 1
 199.040039062 532.48046875 l 1
EndSplineSet
EndChar

StartChar: uF0615
Encoding: 984597 984597 27
Width: 480
Flags: HW
LayerCount: 2
Fore
SplineSet
35.2001953125 532.48046875 m 1
 117.120117188 532.48046875 l 1
 117.120117188 307.200195312 l 1
 444.799804688 307.200195312 l 1
 444.799804688 225.280273438 l 1
 117.120117188 225.280273438 l 1
 117.120117188 0 l 1
 35.2001953125 0 l 1
 35.2001953125 245.759765625 l 1
 35.2001953125 327.6796875 l 1
 35.2001953125 532.48046875 l 1
EndSplineSet
EndChar

StartChar: uF0616
Encoding: 984598 984598 28
Width: 480
InSpiro: 1
Flags: HW
LayerCount: 2
Fore
SplineSet
280.959960938 0 m 1
 199.040039062 0 l 1
 199.040039062 450.559570312 l 1
 35.2001953125 450.559570312 l 1
 35.2001953125 532.48046875 l 1
 199.040039062 532.48046875 l 1
 280.959960938 532.48046875 l 1
 444.799804688 532.48046875 l 1
 444.799804688 450.559570312 l 1
 280.959960938 450.559570312 l 1
 280.959960938 0 l 1
EndSplineSet
EndChar

StartChar: uF0617
Encoding: 984599 984599 29
Width: 480
Flags: HW
LayerCount: 2
Fore
SplineSet
444.799804688 0 m 1
 362.879882812 0 l 1
 362.879882812 225.280273438 l 1
 35.2001953125 225.280273438 l 1
 35.2001953125 307.200195312 l 1
 362.879882812 307.200195312 l 1
 362.879882812 532.48046875 l 1
 444.799804688 532.48046875 l 1
 444.799804688 286.719726562 l 1
 444.799804688 204.799804688 l 1
 444.799804688 0 l 1
EndSplineSet
EndChar

StartChar: uF061D
Encoding: 984605 984605 30
Width: 500
Flags: HW
LayerCount: 2
Fore
SplineSet
127.119140625 530.171875 m 1
 250 325.372070312 l 1
 337.7578125 471.633789062 l 1
 372.87890625 530.171875 l 1
 568.103515625 204.799804688 l 1
 322.34375 204.799804688 l 1
 445.224609375 0 l 1
 54.775390625 0 l 1
 177.65625 204.799804688 l 1
 -68.103515625 204.799804688 l 1
 91.998046875 471.633789062 l 1
 127.119140625 530.171875 l 1
127.119140625 370.950195312 m 1
 76.58203125 286.719726562 l 1
 177.658203125 286.719726562 l 1
 127.119140625 370.950195312 l 1
372.87890625 370.950195312 m 1
 322.341796875 286.719726562 l 1
 423.41796875 286.719726562 l 1
 372.87890625 370.950195312 l 1
250 166.150390625 m 1
 199.4609375 81.919921875 l 1
 300.537109375 81.919921875 l 1
 250 166.150390625 l 1
EndSplineSet
EndChar

StartChar: uF061F
Encoding: 984607 984607 31
Width: 580
Flags: HW
LayerCount: 2
Fore
SplineSet
555.0859375 440.984375 m 5
 350.286132812 318.104492188 l 5
 496.547851562 230.345703125 l 5
 555.0859375 195.223632812 l 5
 229.713867188 0 l 5
 229.713867188 245.759765625 l 5
 24.9140625 122.879882812 l 5
 24.9140625 513.328125 l 5
 229.713867188 390.448242188 l 5
 229.713867188 636.208007812 l 5
 496.547851562 476.106445312 l 5
 555.0859375 440.984375 l 5
395.864257812 440.984375 m 5
 311.633789062 491.522460938 l 5
 311.633789062 390.446289062 l 5
 395.864257812 440.984375 l 5
395.864257812 195.223632812 m 5
 311.633789062 245.76171875 l 5
 311.633789062 144.685546875 l 5
 395.864257812 195.223632812 l 5
191.063476562 318.104492188 m 5
 106.833984375 368.641601562 l 5
 106.833984375 267.56640625 l 5
 191.063476562 318.104492188 l 5
EndSplineSet
EndChar

StartChar: uF0620
Encoding: 984608 984608 32
Width: 580
Flags: HW
LayerCount: 2
Fore
SplineSet
412.880859375 0 m 5
 290 204.799804688 l 5
 202.2421875 58.5380859375 l 5
 167.119140625 0 l 5
 -28.103515625 325.372070312 l 5
 217.65625 325.372070312 l 5
 94.775390625 530.171875 l 5
 485.224609375 530.171875 l 5
 362.34375 325.372070312 l 5
 608.103515625 325.372070312 l 5
 448.001953125 58.5380859375 l 5
 412.880859375 0 l 5
412.880859375 159.221679688 m 5
 463.41796875 243.452148438 l 5
 362.341796875 243.452148438 l 5
 412.880859375 159.221679688 l 5
167.119140625 159.221679688 m 5
 217.658203125 243.452148438 l 5
 116.58203125 243.452148438 l 5
 167.119140625 159.221679688 l 5
290 364.021484375 m 5
 340.537109375 448.251953125 l 5
 239.4609375 448.251953125 l 5
 290 364.021484375 l 5
EndSplineSet
EndChar

StartChar: uF0621
Encoding: 984609 984609 33
Width: 580
Flags: HW
LayerCount: 2
Fore
SplineSet
24.9140625 195.223632812 m 5
 229.713867188 318.103515625 l 5
 83.4521484375 405.862304688 l 5
 24.9140625 440.983398438 l 5
 350.286132812 636.208007812 l 5
 350.286132812 390.448242188 l 5
 555.0859375 513.328125 l 5
 555.0859375 122.879882812 l 5
 350.286132812 245.759765625 l 5
 350.286132812 0 l 5
 83.4521484375 160.1015625 l 5
 24.9140625 195.223632812 l 5
184.135742188 195.223632812 m 5
 268.365234375 144.685546875 l 5
 268.365234375 245.76171875 l 5
 184.135742188 195.223632812 l 5
184.135742188 440.983398438 m 5
 268.365234375 390.446289062 l 5
 268.365234375 491.521484375 l 5
 184.135742188 440.983398438 l 5
388.935546875 318.103515625 m 5
 473.166015625 267.565429688 l 5
 473.166015625 368.641601562 l 5
 388.935546875 318.103515625 l 5
EndSplineSet
EndChar

StartChar: uF061E
Encoding: 984606 984606 34
Width: 480
Flags: HW
LayerCount: 2
Fore
SplineSet
35.2001953125 532.48046875 m 1
 117.120117188 532.48046875 l 1
 117.120117188 0 l 1
 35.2001953125 0 l 1
 35.2001953125 532.48046875 l 1
199.040039062 532.48046875 m 1
 280.959960938 532.48046875 l 1
 280.959960938 0 l 1
 199.040039062 0 l 1
 199.040039062 532.48046875 l 1
362.879882812 532.48046875 m 1
 444.799804688 532.48046875 l 1
 444.799804688 0 l 1
 362.879882812 0 l 1
 362.879882812 532.48046875 l 1
EndSplineSet
EndChar

StartChar: uF0622
Encoding: 984610 984610 35
Width: 480
Flags: HW
LayerCount: 2
Fore
SplineSet
35.2001953125 532.48046875 m 1
 76.16015625 532.48046875 l 1
 117.120117188 532.48046875 l 1
 362.879882812 532.48046875 l 1
 403.83984375 532.48046875 l 1
 444.799804688 532.48046875 l 1
 444.799804688 0 l 1
 362.879882812 0 l 1
 362.879882812 450.559570312 l 1
 117.120117188 450.559570312 l 1
 117.120117188 0 l 1
 35.2001953125 0 l 1
 35.2001953125 532.48046875 l 1
EndSplineSet
EndChar

StartChar: uF0625
Encoding: 984613 984613 36
Width: 480
Flags: HW
LayerCount: 2
Fore
SplineSet
444.80078125 0 m 5
 403.83984375 0 l 5
 362.880859375 0 l 5
 117.119140625 0 l 5
 76.16015625 0 l 5
 35.19921875 0 l 5
 35.19921875 532.479492188 l 5
 117.119140625 532.479492188 l 5
 117.119140625 81.919921875 l 5
 362.880859375 81.919921875 l 5
 362.880859375 532.479492188 l 5
 444.80078125 532.479492188 l 5
 444.80078125 0 l 5
EndSplineSet
EndChar

StartChar: uF0623
Encoding: 984611 984611 37
Width: 480
Flags: HW
LayerCount: 2
Fore
SplineSet
35.2001953125 532.48046875 m 1
 117.120117188 532.48046875 l 1
 117.120117188 286.719726562 l 1
 362.879882812 286.719726562 l 1
 362.879882812 532.48046875 l 1
 444.799804688 532.48046875 l 1
 444.799804688 0 l 1
 362.879882812 0 l 1
 362.879882812 204.799804688 l 1
 117.120117188 204.799804688 l 1
 117.120117188 0 l 1
 35.2001953125 0 l 1
 35.2001953125 532.48046875 l 1
EndSplineSet
EndChar

StartChar: uF0624
Encoding: 984612 984612 38
Width: 480
Flags: HW
LayerCount: 2
Fore
SplineSet
35.2001953125 532.48046875 m 1
 444.799804688 532.48046875 l 1
 444.799804688 491.51953125 l 1
 444.799804688 450.559570312 l 1
 444.799804688 81.919921875 l 1
 444.799804688 40.9599609375 l 1
 444.799804688 0 l 1
 35.2001953125 0 l 1
 35.2001953125 81.919921875 l 1
 362.879882812 81.919921875 l 1
 362.879882812 450.559570312 l 1
 35.2001953125 450.559570312 l 1
 35.2001953125 532.48046875 l 1
EndSplineSet
EndChar

StartChar: uF0626
Encoding: 984614 984614 39
Width: 480
Flags: HW
LayerCount: 2
Fore
SplineSet
444.799804688 0 m 1
 35.2001953125 0 l 1
 35.2001953125 40.9599609375 l 1
 35.2001953125 81.919921875 l 1
 35.2001953125 450.559570312 l 1
 35.2001953125 491.51953125 l 1
 35.2001953125 532.48046875 l 1
 444.799804688 532.48046875 l 1
 444.799804688 450.559570312 l 1
 117.120117188 450.559570312 l 1
 117.120117188 81.919921875 l 1
 444.799804688 81.919921875 l 1
 444.799804688 0 l 1
EndSplineSet
EndChar

StartChar: uF0627
Encoding: 984615 984615 40
Width: 480
Flags: HW
LayerCount: 2
Fore
SplineSet
35.2001953125 532.48046875 m 1
 444.799804688 532.48046875 l 1
 444.799804688 450.559570312 l 1
 319.591796875 450.559570312 l 1
 478.129882812 228.608398438 l 1
 411.469726562 180.9921875 l 1
 280.959960938 363.706054688 l 1
 280.959960938 0 l 1
 199.040039062 0 l 1
 199.040039062 363.706054688 l 1
 68.5302734375 180.9921875 l 1
 1.8701171875 228.608398438 l 1
 160.408203125 450.559570312 l 1
 35.2001953125 450.559570312 l 1
 35.2001953125 532.48046875 l 1
EndSplineSet
EndChar

StartChar: uF0628
Encoding: 984616 984616 41
Width: 480
Flags: HW
LayerCount: 2
Fore
SplineSet
199.040039062 532.48046875 m 1
 280.959960938 532.48046875 l 1
 280.959960938 344.6484375 l 1
 415.8359375 479.524414062 l 1
 473.764648438 421.595703125 l 1
 338.888671875 286.719726562 l 1
 485.759765625 286.719726562 l 1
 485.759765625 204.799804688 l 1
 338.888671875 204.799804688 l 1
 473.764648438 69.923828125 l 1
 415.8359375 11.99609375 l 1
 280.959960938 146.872070312 l 1
 280.959960938 -40.9599609375 l 1
 199.040039062 -40.9599609375 l 1
 199.040039062 146.872070312 l 1
 64.1640625 11.99609375 l 1
 6.236328125 69.923828125 l 1
 141.112304688 204.799804688 l 1
 -5.759765625 204.799804688 l 1
 -5.759765625 286.719726562 l 1
 141.112304688 286.719726562 l 1
 6.236328125 421.595703125 l 1
 64.1640625 479.524414062 l 1
 199.040039062 344.6484375 l 1
 199.040039062 532.48046875 l 1
EndSplineSet
EndChar

StartChar: uF0629
Encoding: 984617 984617 42
Width: 480
Flags: HW
LayerCount: 2
Fore
SplineSet
35.2001953125 532.48046875 m 1
 117.120117188 532.48046875 l 1
 117.120117188 344.6484375 l 1
 292.956054688 520.484375 l 1
 350.883789062 462.555664062 l 1
 175.047851562 286.719726562 l 1
 444.799804688 286.719726562 l 1
 444.799804688 204.799804688 l 1
 175.047851562 204.799804688 l 1
 350.883789062 28.9638671875 l 1
 292.956054688 -28.9638671875 l 1
 117.120117188 146.872070312 l 1
 117.120117188 -40.9599609375 l 1
 35.2001953125 -40.9599609375 l 1
 35.2001953125 532.48046875 l 1
EndSplineSet
EndChar

StartChar: uF062A
Encoding: 984618 984618 43
Width: 480
Flags: HW
LayerCount: 2
Fore
SplineSet
444.799804688 0 m 1
 35.2001953125 0 l 1
 35.2001953125 81.919921875 l 1
 160.408203125 81.919921875 l 1
 1.8701171875 303.872070312 l 1
 68.5302734375 351.48828125 l 1
 199.040039062 168.774414062 l 1
 199.040039062 532.48046875 l 1
 280.959960938 532.48046875 l 1
 280.959960938 168.774414062 l 1
 411.469726562 351.48828125 l 1
 478.129882812 303.872070312 l 1
 319.591796875 81.919921875 l 1
 444.799804688 81.919921875 l 1
 444.799804688 0 l 1
EndSplineSet
EndChar

StartChar: uF062B
Encoding: 984619 984619 44
Width: 480
Flags: HW
LayerCount: 2
Fore
SplineSet
444.80078125 0 m 5
 362.880859375 0 l 5
 362.880859375 187.83203125 l 5
 187.04296875 11.99609375 l 5
 129.115234375 69.923828125 l 5
 304.951171875 245.759765625 l 5
 35.19921875 245.759765625 l 5
 35.19921875 327.6796875 l 5
 304.951171875 327.6796875 l 5
 129.115234375 503.515625 l 5
 187.04296875 561.444335938 l 5
 362.880859375 385.608398438 l 5
 362.880859375 573.440429688 l 5
 444.80078125 573.440429688 l 5
 444.80078125 0 l 5
EndSplineSet
EndChar

StartChar: uF062C
Encoding: 984620 984620 45
Width: 480
Flags: HW
LayerCount: 2
Fore
SplineSet
240 501.190429688 m 1
 470.114257812 40.9599609375 l 5
 9.8857421875 40.9599609375 l 1
 203.364257812 427.91796875 l 1
 240 501.190429688 l 1
240 318.009765625 m 1
 142.436523438 122.879882812 l 1
 337.564453125 122.879882812 l 1
 240 318.009765625 l 1
EndSplineSet
EndChar

StartChar: uF062D
Encoding: 984621 984621 46
Width: 480
Flags: HW
LayerCount: 2
Fore
SplineSet
240 245.759765625 m 1025
-0.3740234375 532.48046875 m 1
 480.374023438 532.48046875 l 1
 289.228515625 245.759765625 l 1
 437.919921875 22.7197265625 l 1
 480.374023438 -40.9599609375 l 1
 -0.3740234375 -40.9599609375 l 1
 190.772460938 245.759765625 l 1
 42.080078125 468.799804688 l 1
 -0.3740234375 532.48046875 l 1
152.694335938 450.559570312 m 1
 240 319.6015625 l 1
 327.306640625 450.559570312 l 1
 152.694335938 450.559570312 l 1
240 171.91796875 m 1
 152.694335938 40.9599609375 l 1
 327.306640625 40.9599609375 l 1
 240 171.91796875 l 1
EndSplineSet
EndChar

StartChar: uF062E
Encoding: 984622 984622 47
Width: 480
Flags: HW
LayerCount: 2
Fore
SplineSet
17.0380859375 557.404296875 m 5
 462.961914062 278.702148438 l 5
 17.0380859375 0 l 5
 17.0380859375 483.501953125 l 5
 17.0380859375 557.404296875 l 5
98.9580078125 409.600585938 m 5
 98.9580078125 147.8046875 l 5
 308.396484375 278.702148438 l 5
 98.9580078125 409.600585938 l 5
EndSplineSet
EndChar

StartChar: uF062F
Encoding: 984623 984623 48
Width: 480
Flags: HW
LayerCount: 2
Fore
SplineSet
240 0 m 5
 9.88671875 460.229492188 l 5
 470.11328125 460.229492188 l 5
 276.63671875 73.271484375 l 5
 240 0 l 5
240 183.1796875 m 5
 337.564453125 378.309570312 l 5
 142.435546875 378.309570312 l 5
 240 183.1796875 l 5
EndSplineSet
EndChar

StartChar: uF0630
Encoding: 984624 984624 49
Width: 480
Flags: HW
LayerCount: 2
Fore
SplineSet
462.962890625 0 m 5
 17.037109375 278.702148438 l 5
 462.962890625 557.404296875 l 5
 462.962890625 73.90234375 l 5
 462.962890625 0 l 5
381.04296875 147.8046875 m 5
 381.04296875 409.600585938 l 5
 171.603515625 278.702148438 l 5
 381.04296875 147.8046875 l 5
EndSplineSet
EndChar

StartChar: uF0631
Encoding: 984625 984625 50
Width: 480
Flags: HW
LayerCount: 2
Fore
SplineSet
199.0390625 532.48046875 m 1
 280.958984375 532.48046875 l 1
 280.958984375 260.58984375 l 1
 476.265625 26.2216796875 l 1
 413.333984375 -26.2216796875 l 1
 280.958984375 132.625976562 l 1
 280.958984375 0 l 1
 199.0390625 0 l 1
 199.0390625 132.625976562 l 1
 66.666015625 -26.2216796875 l 1
 3.734375 26.2216796875 l 1
 199.0390625 260.58984375 l 1
 199.0390625 532.48046875 l 1
EndSplineSet
EndChar

StartChar: uF0632
Encoding: 984626 984626 51
Width: 480
Flags: HW
LayerCount: 2
Fore
SplineSet
35.2001953125 532.48046875 m 1
 117.120117188 532.48046875 l 1
 117.120117188 122.881835938 l 1
 335.572265625 532.48046875 l 1
 444.799804688 532.48046875 l 1
 444.799804688 0 l 1
 362.879882812 0 l 1
 362.879882812 409.59765625 l 1
 144.427734375 0 l 1
 35.2001953125 0 l 1
 35.2001953125 532.48046875 l 1
EndSplineSet
EndChar

StartChar: uF0633
Encoding: 984627 984627 52
Width: 480
Flags: HW
LayerCount: 2
Fore
SplineSet
82.3984375 517.7421875 m 1
 274.91796875 286.719726562 l 1
 460.533203125 286.719726562 l 1
 460.533203125 204.799804688 l 1
 274.91796875 204.799804688 l 1
 82.3984375 -26.2216796875 l 1
 19.466796875 26.2216796875 l 1
 168.28125 204.799804688 l 1
 50.93359375 204.799804688 l 1
 50.93359375 286.719726562 l 1
 168.28125 286.719726562 l 1
 19.466796875 465.297851562 l 1
 82.3984375 517.7421875 l 1
EndSplineSet
EndChar

StartChar: uF0634
Encoding: 984628 984628 53
Width: 480
Flags: HW
LayerCount: 2
Fore
SplineSet
280.958984375 0 m 5
 199.0390625 0 l 5
 199.0390625 271.889648438 l 5
 3.734375 506.2578125 l 5
 66.666015625 558.702148438 l 5
 199.0390625 399.853515625 l 5
 199.0390625 532.479492188 l 5
 280.958984375 532.479492188 l 5
 280.958984375 399.853515625 l 5
 413.333984375 558.702148438 l 5
 476.265625 506.2578125 l 5
 280.958984375 271.889648438 l 5
 280.958984375 0 l 5
EndSplineSet
EndChar

StartChar: uF0635
Encoding: 984629 984629 54
Width: 480
Flags: HW
LayerCount: 2
Fore
SplineSet
397.600585938 0 m 5
 205.083007812 231.021484375 l 5
 19.466796875 231.021484375 l 5
 19.466796875 312.94140625 l 5
 205.083007812 312.94140625 l 5
 397.600585938 543.963867188 l 5
 460.533203125 491.51953125 l 5
 311.71875 312.94140625 l 5
 429.067382812 312.94140625 l 5
 429.067382812 231.021484375 l 5
 311.71875 231.021484375 l 5
 460.533203125 52.443359375 l 5
 397.600585938 0 l 5
EndSplineSet
EndChar

StartChar: uF0636
Encoding: 984630 984630 55
Width: 480
Flags: HW
LayerCount: 2
Fore
SplineSet
35.2001953125 450.559570312 m 1
 444.799804688 450.559570312 l 1
 444.799804688 368.639648438 l 1
 319.591796875 368.639648438 l 1
 478.129882812 146.688476562 l 1
 411.469726562 99.072265625 l 1
 240 339.129882812 l 1
 68.5302734375 99.072265625 l 1
 1.8701171875 146.688476562 l 1
 160.408203125 368.639648438 l 1
 35.2001953125 368.639648438 l 1
 35.2001953125 450.559570312 l 1
EndSplineSet
EndChar

StartChar: uF0637
Encoding: 984631 984631 56
Width: 480
Flags: HW
LayerCount: 2
Fore
SplineSet
108.14453125 476.1484375 m 5
 240 311.328125 l 5
 371.856445312 476.1484375 l 5
 435.82421875 424.971679688 l 5
 325.22265625 286.719726562 l 5
 444.799804688 286.719726562 l 5
 444.799804688 204.799804688 l 5
 325.22265625 204.799804688 l 5
 435.82421875 66.5478515625 l 5
 371.856445312 15.3720703125 l 5
 240 180.192382812 l 5
 108.14453125 15.3720703125 l 5
 44.17578125 66.5478515625 l 5
 154.778320312 204.799804688 l 5
 35.2001953125 204.799804688 l 5
 35.2001953125 286.719726562 l 5
 154.778320312 286.719726562 l 5
 44.17578125 424.971679688 l 5
 108.14453125 476.1484375 l 5
EndSplineSet
EndChar

StartChar: uF0638
Encoding: 984632 984632 57
Width: 480
Flags: HW
LayerCount: 2
Back
SplineSet
168.80859375 1556.48046875 m 1
 168.80859375 1146.87988281 l 1
 86.888671875 1146.87988281 l 1
 86.888671875 1272.08789062 l 1
 -135.063476562 1113.54980469 l 1
 -182.6796875 1180.20996094 l 1
 57.3779296875 1351.6796875 l 1
 -182.6796875 1523.15039062 l 1
 -135.063476562 1589.80957031 l 1
 86.888671875 1431.27246094 l 1
 86.888671875 1556.48046875 l 1
 168.80859375 1556.48046875 l 1
EndSplineSet
Fore
SplineSet
415.744140625 409.600585938 m 5
 415.744140625 0 l 5
 333.82421875 0 l 5
 333.82421875 125.208007812 l 5
 111.872070312 -33.330078125 l 5
 64.255859375 33.330078125 l 5
 304.313476562 204.799804688 l 5
 64.255859375 376.270507812 l 5
 111.872070312 442.9296875 l 5
 333.82421875 284.392578125 l 5
 333.82421875 409.600585938 l 5
 415.744140625 409.600585938 l 5
EndSplineSet
EndChar

StartChar: uF0639
Encoding: 984633 984633 58
Width: 480
Flags: HW
LayerCount: 2
Fore
SplineSet
444.80078125 0 m 5
 35.19921875 0 l 5
 35.19921875 81.919921875 l 5
 160.408203125 81.919921875 l 5
 1.869140625 303.872070312 l 5
 68.529296875 351.48828125 l 5
 240 111.4296875 l 5
 411.470703125 351.48828125 l 5
 478.130859375 303.872070312 l 5
 319.591796875 81.919921875 l 5
 444.80078125 81.919921875 l 5
 444.80078125 0 l 5
EndSplineSet
EndChar

StartChar: uF063A
Encoding: 984634 984634 59
Width: 480
Flags: HW
LayerCount: 2
Fore
SplineSet
64.255859375 0 m 5
 64.255859375 409.599609375 l 5
 146.17578125 409.599609375 l 5
 146.17578125 284.391601562 l 5
 368.127929688 442.9296875 l 5
 415.744140625 376.26953125 l 5
 175.685546875 204.799804688 l 5
 415.744140625 33.330078125 l 5
 368.127929688 -33.330078125 l 5
 146.17578125 125.208007812 l 5
 146.17578125 0 l 5
 64.255859375 0 l 5
EndSplineSet
EndChar

StartChar: uF063B
Encoding: 984635 984635 60
Width: 480
Flags: HW
LayerCount: 2
Fore
SplineSet
240 439.110351562 m 1
 478.129882812 105.727539062 l 1
 411.469726562 58.1123046875 l 1
 240 298.169921875 l 1
 68.5302734375 58.1123046875 l 1
 1.8701171875 105.727539062 l 1
 240 439.110351562 l 1
EndSplineSet
EndChar

StartChar: uF063C
Encoding: 984636 984636 61
Width: 480
Flags: HW
LayerCount: 2
Fore
SplineSet
108.14453125 476.1484375 m 1
 240 311.328125 l 1
 371.856445312 476.1484375 l 1
 435.82421875 424.971679688 l 1
 292.454101562 245.759765625 l 1
 435.82421875 66.5478515625 l 1
 371.856445312 15.3720703125 l 1
 240 180.192382812 l 1
 108.14453125 15.3720703125 l 1
 44.17578125 66.5478515625 l 1
 187.545898438 245.759765625 l 1
 44.17578125 424.971679688 l 1
 108.14453125 476.1484375 l 1
EndSplineSet
EndChar

StartChar: uF063D
Encoding: 984637 984637 62
Width: 480
Flags: HW
LayerCount: 2
Fore
SplineSet
430.499023438 238.129882812 m 5
 97.1171875 0 l 5
 49.5009765625 66.66015625 l 5
 289.559570312 238.129882812 l 5
 49.5009765625 409.599609375 l 5
 97.1171875 476.259765625 l 5
 430.499023438 238.129882812 l 5
EndSplineSet
EndChar

StartChar: uF063E
Encoding: 984638 984638 63
Width: 480
Flags: HW
LayerCount: 2
Fore
SplineSet
240 0 m 5
 1.869140625 333.381835938 l 5
 68.529296875 380.998046875 l 5
 240 140.940429688 l 5
 411.470703125 380.998046875 l 5
 478.130859375 333.381835938 l 5
 240 0 l 5
EndSplineSet
EndChar

StartChar: uF063F
Encoding: 984639 984639 64
Width: 480
Flags: HW
LayerCount: 2
Fore
SplineSet
49.5009765625 238.129882812 m 5
 382.883789062 476.259765625 l 5
 430.499023438 409.599609375 l 5
 190.44140625 238.129882812 l 5
 430.499023438 66.6591796875 l 5
 382.883789062 0 l 5
 49.5009765625 238.129882812 l 5
EndSplineSet
EndChar

StartChar: uF0640
Encoding: 984640 984640 65
Width: 480
Flags: HW
LayerCount: 2
Fore
SplineSet
240 426.56640625 m 1
 473.763671875 192.803710938 l 1
 415.8359375 134.875976562 l 1
 280.958984375 269.751953125 l 1
 280.958984375 40.9599609375 l 1
 199.0390625 40.9599609375 l 1
 199.0390625 269.751953125 l 1
 64.1640625 134.875976562 l 1
 6.236328125 192.803710938 l 1
 240 426.56640625 l 1
EndSplineSet
EndChar

StartChar: uF0641
Encoding: 984641 984641 66
Width: 480
Flags: HW
LayerCount: 2
Fore
SplineSet
35.2001953125 409.599609375 m 1
 240 256 l 1
 444.799804688 409.599609375 l 1
 444.799804688 81.919921875 l 1
 444.799804688 0 l 1
 240 153.599609375 l 1
 35.2001953125 0 l 1
 35.2001953125 327.6796875 l 1
 35.2001953125 409.599609375 l 1
117.120117188 245.759765625 m 1
 117.120117188 163.83984375 l 1
 171.734375 204.799804688 l 1
 117.120117188 245.759765625 l 1
362.879882812 245.759765625 m 1
 308.266601562 204.799804688 l 1
 362.879882812 163.83984375 l 1
 362.879882812 245.759765625 l 1
EndSplineSet
EndChar

StartChar: uF0642
Encoding: 984642 984642 67
Width: 480
Flags: HW
LayerCount: 2
Fore
SplineSet
432.802734375 233.763671875 m 5
 199.041015625 0 l 5
 141.11328125 57.927734375 l 5
 275.98828125 192.803710938 l 5
 47.197265625 192.803710938 l 5
 47.197265625 274.723632812 l 5
 275.98828125 274.723632812 l 5
 141.11328125 409.599609375 l 5
 199.041015625 467.528320312 l 5
 432.802734375 233.763671875 l 5
EndSplineSet
EndChar

StartChar: uF0643
Encoding: 984643 984643 68
Width: 480
Flags: HW
LayerCount: 2
Fore
SplineSet
240 0 m 5
 6.236328125 233.76171875 l 5
 64.1640625 291.689453125 l 5
 199.0390625 156.813476562 l 5
 199.0390625 385.60546875 l 5
 280.958984375 385.60546875 l 5
 280.958984375 156.813476562 l 5
 415.8359375 291.689453125 l 5
 473.763671875 233.76171875 l 5
 240 0 l 5
EndSplineSet
EndChar

StartChar: uF0644
Encoding: 984644 984644 69
Width: 480
Flags: HW
LayerCount: 2
Fore
SplineSet
47.197265625 233.763671875 m 5
 280.958984375 467.528320312 l 5
 338.88671875 409.599609375 l 5
 204.01171875 274.723632812 l 5
 432.802734375 274.723632812 l 5
 432.802734375 192.803710938 l 5
 204.01171875 192.803710938 l 5
 338.88671875 57.927734375 l 5
 280.958984375 0 l 5
 47.197265625 233.763671875 l 5
EndSplineSet
EndChar

StartChar: uF0645
Encoding: 984645 984645 70
Width: 480
Flags: HW
LayerCount: 2
Fore
SplineSet
149.452148438 434.748046875 m 1
 240 318.328125 l 1
 330.547851562 434.748046875 l 1
 395.211914062 384.452148438 l 1
 291.892578125 251.612304688 l 1
 487.587890625 0 l 1
 -7.587890625 0 l 1
 188.108398438 251.612304688 l 1
 84.7880859375 384.452148438 l 1
 149.452148438 434.748046875 l 1
240 184.893554688 m 1
 159.91015625 81.919921875 l 1
 320.08984375 81.919921875 l 1
 240 184.893554688 l 1
EndSplineSet
EndChar

StartChar: uF0646
Encoding: 984646 984646 71
Width: 480
Flags: HW
LayerCount: 2
Fore
SplineSet
35.2001953125 491.51953125 m 1
 444.799804688 491.51953125 l 1
 444.799804688 392.633789062 l 1
 338.885742188 286.719726562 l 1
 444.799804688 286.719726562 l 1
 444.799804688 225.280273438 l 1
 444.799804688 204.799804688 l 1
 256.967773438 204.799804688 l 1
 134.087890625 81.919921875 l 1
 444.799804688 81.919921875 l 1
 444.799804688 0 l 1
 35.2001953125 0 l 1
 35.2001953125 98.8857421875 l 1
 141.114257812 204.799804688 l 1
 35.2001953125 204.799804688 l 1
 35.2001953125 286.719726562 l 1
 223.032226562 286.719726562 l 1
 345.912109375 409.599609375 l 1
 35.2001953125 409.599609375 l 1
 35.2001953125 491.51953125 l 1
EndSplineSet
EndChar

StartChar: uF0647
Encoding: 984647 984647 72
Width: 480
Flags: HW
LayerCount: 2
Fore
SplineSet
457.374023438 338.135742188 m 5
 340.954101562 247.587890625 l 5
 457.374023438 157.0390625 l 5
 407.078125 92.3759765625 l 5
 274.237304688 195.6953125 l 5
 22.6259765625 0 l 5
 22.6259765625 495.17578125 l 5
 274.237304688 299.479492188 l 5
 407.078125 402.799804688 l 5
 457.374023438 338.135742188 l 5
207.51953125 247.587890625 m 5
 104.545898438 327.677734375 l 5
 104.545898438 167.497070312 l 5
 207.51953125 247.587890625 l 5
EndSplineSet
EndChar

StartChar: uF0648
Encoding: 984648 984648 73
Width: 480
Flags: HW
LayerCount: 2
Fore
SplineSet
330.548828125 0 m 5
 240 116.419921875 l 5
 149.451171875 0 l 5
 84.787109375 50.2958984375 l 5
 188.107421875 183.135742188 l 5
 -7.587890625 434.748046875 l 5
 487.587890625 434.748046875 l 5
 291.892578125 183.135742188 l 5
 395.2109375 50.2958984375 l 5
 330.548828125 0 l 5
240 249.854492188 m 5
 320.08984375 352.828125 l 5
 159.91015625 352.828125 l 5
 240 249.854492188 l 5
EndSplineSet
EndChar

StartChar: uF0649
Encoding: 984649 984649 74
Width: 480
Flags: HW
LayerCount: 2
Fore
SplineSet
22.6259765625 157.040039062 m 5
 139.045898438 247.587890625 l 5
 22.6259765625 338.13671875 l 5
 72.921875 402.80078125 l 5
 205.76171875 299.48046875 l 5
 457.374023438 495.176757812 l 5
 457.374023438 0 l 5
 205.76171875 195.696289062 l 5
 72.921875 92.3759765625 l 5
 22.6259765625 157.040039062 l 5
272.479492188 247.587890625 m 5
 375.454101562 167.498046875 l 5
 375.454101562 327.678710938 l 5
 272.479492188 247.587890625 l 5
EndSplineSet
EndChar

StartChar: uF064A
Encoding: 984650 984650 75
Width: 480
Flags: HW
LayerCount: 2
Fore
SplineSet
240 409.599609375 m 1
 265.314453125 409.599609375 l 1
 444.799804688 409.599609375 l 1
 444.799804688 327.6796875 l 1
 306.274414062 327.6796875 l 1
 429.154296875 81.919921875 l 1
 50.8466796875 81.919921875 l 1
 173.7265625 327.6796875 l 1
 35.2001953125 327.6796875 l 1
 35.2001953125 409.599609375 l 1
 214.684570312 409.599609375 l 1
 240 409.599609375 l 1
240 277.049804688 m 1
 183.396484375 163.83984375 l 1
 296.604492188 163.83984375 l 1
 240 277.049804688 l 1
EndSplineSet
EndChar

StartChar: uF064B
Encoding: 984651 984651 76
Width: 480
Flags: HW
LayerCount: 2
Fore
SplineSet
44.7763671875 491.51953125 m 1
 435.224609375 491.51953125 l 1
 312.341796875 286.719726562 l 1
 444.799804688 286.719726562 l 1
 444.799804688 204.799804688 l 1
 312.34375 204.799804688 l 1
 435.224609375 0 l 1
 44.7763671875 0 l 1
 167.658203125 204.799804688 l 1
 35.2001953125 204.799804688 l 1
 35.2001953125 286.719726562 l 1
 167.65625 286.719726562 l 1
 44.7763671875 491.51953125 l 1
189.461914062 409.599609375 m 1
 240 325.372070312 l 1
 290.538085938 409.599609375 l 1
 189.461914062 409.599609375 l 1
240 166.1484375 m 1
 189.461914062 81.919921875 l 1
 290.538085938 81.919921875 l 1
 240 166.1484375 l 1
EndSplineSet
EndChar

StartChar: uF064C
Encoding: 984652 984652 77
Width: 480
Flags: HW
LayerCount: 2
Fore
SplineSet
403.83984375 204.799804688 m 5
 403.83984375 179.486328125 l 5
 403.83984375 0 l 5
 321.919921875 0 l 5
 321.919921875 138.526367188 l 5
 76.16015625 15.646484375 l 5
 76.16015625 393.954101562 l 5
 321.919921875 271.07421875 l 5
 321.919921875 409.600585938 l 5
 403.83984375 409.600585938 l 5
 403.83984375 230.116210938 l 5
 403.83984375 204.799804688 l 5
271.290039062 204.799804688 m 5
 158.080078125 261.404296875 l 5
 158.080078125 148.196289062 l 5
 271.290039062 204.799804688 l 5
EndSplineSet
EndChar

StartChar: uF064D
Encoding: 984653 984653 78
Width: 480
Flags: HW
LayerCount: 2
Fore
SplineSet
240 0 m 5
 214.685546875 0 l 5
 35.19921875 0 l 5
 35.19921875 81.919921875 l 5
 173.7265625 81.919921875 l 5
 50.845703125 327.6796875 l 5
 429.154296875 327.6796875 l 5
 306.2734375 81.919921875 l 5
 444.80078125 81.919921875 l 5
 444.80078125 0 l 5
 265.31640625 0 l 5
 240 0 l 5
240 132.549804688 m 5
 296.603515625 245.759765625 l 5
 183.396484375 245.759765625 l 5
 240 132.549804688 l 5
EndSplineSet
EndChar

StartChar: uF064E
Encoding: 984654 984654 79
Width: 480
Flags: HW
LayerCount: 2
Fore
SplineSet
76.16015625 204.799804688 m 5
 76.16015625 230.114257812 l 5
 76.16015625 409.599609375 l 5
 158.080078125 409.599609375 l 5
 158.080078125 271.07421875 l 5
 403.83984375 393.954101562 l 5
 403.83984375 15.6455078125 l 5
 158.080078125 138.526367188 l 5
 158.080078125 0 l 5
 76.16015625 0 l 5
 76.16015625 179.484375 l 5
 76.16015625 204.799804688 l 5
208.709960938 204.799804688 m 5
 321.919921875 148.196289062 l 5
 321.919921875 261.404296875 l 5
 208.709960938 204.799804688 l 5
EndSplineSet
EndChar

StartChar: uF064F
Encoding: 984655 984655 80
Width: 480
Flags: HW
LayerCount: 2
Fore
SplineSet
240 493.942382812 m 1
 480.60546875 60.8515625 l 1
 408.994140625 21.068359375 l 1
 352.431640625 122.879882812 l 1
 127.568359375 122.879882812 l 1
 71.005859375 21.068359375 l 1
 -0.60546875 60.8515625 l 1
 240 493.942382812 l 1
240 325.2578125 m 1
 173.080078125 204.799804688 l 1
 306.919921875 204.799804688 l 1
 240 325.2578125 l 1
EndSplineSet
EndChar

StartChar: uF0650
Encoding: 984656 984656 81
Width: 480
Flags: HW
LayerCount: 2
Fore
SplineSet
199.040039062 409.599609375 m 1
 280.959960938 409.599609375 l 1
 280.959960938 0 l 1
 199.040039062 0 l 1
 199.040039062 409.599609375 l 1
35.2001953125 409.599609375 m 1
 240 256 l 1
 444.799804688 409.599609375 l 1
 444.799804688 81.919921875 l 1
 444.799804688 0 l 1
 240 153.599609375 l 1
 35.2001953125 0 l 1
 35.2001953125 327.6796875 l 1
 35.2001953125 409.599609375 l 1
117.120117188 245.759765625 m 1
 117.120117188 163.83984375 l 1
 171.734375 204.799804688 l 1
 117.120117188 245.759765625 l 1
362.879882812 245.759765625 m 1
 308.266601562 204.799804688 l 1
 362.879882812 163.83984375 l 1
 362.879882812 245.759765625 l 1
EndSplineSet
EndChar

StartChar: uF0651
Encoding: 984657 984657 82
Width: 480
Flags: HW
LayerCount: 2
Fore
SplineSet
476.4375 240.60546875 m 5
 43.345703125 0 l 5
 3.5625 71.6123046875 l 5
 105.375 128.173828125 l 5
 105.375 353.038085938 l 5
 3.5625 409.599609375 l 5
 43.345703125 481.211914062 l 5
 476.4375 240.60546875 l 5
307.751953125 240.60546875 m 5
 187.294921875 307.526367188 l 5
 187.294921875 173.685546875 l 5
 307.751953125 240.60546875 l 5
EndSplineSet
EndChar

StartChar: uF0652
Encoding: 984658 984658 83
Width: 480
Flags: HW
LayerCount: 2
Fore
SplineSet
240 0 m 5
 -0.60546875 433.08984375 l 5
 71.005859375 472.874023438 l 5
 127.568359375 371.0625 l 5
 352.431640625 371.0625 l 5
 408.994140625 472.874023438 l 5
 480.60546875 433.08984375 l 5
 240 0 l 5
240 168.684570312 m 5
 306.919921875 289.142578125 l 5
 173.080078125 289.142578125 l 5
 240 168.684570312 l 5
EndSplineSet
EndChar

StartChar: uF0653
Encoding: 984659 984659 84
Width: 480
Flags: HW
LayerCount: 2
Fore
SplineSet
3.5625 240.60546875 m 5
 436.65234375 481.211914062 l 5
 476.4375 409.599609375 l 5
 374.625 353.038085938 l 5
 374.625 128.173828125 l 5
 476.4375 71.611328125 l 5
 436.65234375 0 l 5
 3.5625 240.60546875 l 5
172.24609375 240.60546875 m 5
 292.705078125 173.685546875 l 5
 292.705078125 307.525390625 l 5
 172.24609375 240.60546875 l 5
EndSplineSet
EndChar

StartChar: uF0654
Encoding: 984660 984660 85
Width: 480
Flags: HW
LayerCount: 2
Fore
SplineSet
240 398.150390625 m 1
 524.39453125 0 l 1
 -44.39453125 0 l 1
 206.669921875 351.48828125 l 1
 240 398.150390625 l 1
199.0390625 199.866210938 m 1
 114.791015625 81.919921875 l 1
 199.0390625 81.919921875 l 1
 199.0390625 199.866210938 l 1
280.958984375 199.866210938 m 1
 280.958984375 81.919921875 l 1
 365.20703125 81.919921875 l 1
 280.958984375 199.866210938 l 1
EndSplineSet
EndChar

StartChar: uF0655
Encoding: 984661 984661 86
Width: 480
Flags: HW
LayerCount: 2
Fore
SplineSet
-44.39453125 614.399414062 m 5
 524.39453125 614.399414062 l 5
 451.25 512 378.107421875 409.599609375 304.96484375 307.200195312 c 5
 524.39453125 0 l 5
 -44.39453125 0 l 5
 28.75 102.399414062 101.892578125 204.799804688 175.03515625 307.200195312 c 5
 -44.39453125 614.399414062 l 5
114.791015625 532.479492188 m 5
 199.0390625 414.534179688 l 5
 199.0390625 532.479492188 l 5
 114.791015625 532.479492188 l 5
280.958984375 532.479492188 m 5
 280.958984375 414.534179688 l 5
 365.20703125 532.479492188 l 5
 280.958984375 532.479492188 l 5
199.0390625 199.866210938 m 5
 114.791015625 81.919921875 l 5
 199.0390625 81.919921875 l 5
 199.0390625 199.866210938 l 5
280.958984375 199.866210938 m 5
 280.958984375 81.919921875 l 5
 365.20703125 81.919921875 l 5
 280.958984375 199.866210938 l 5
EndSplineSet
EndChar

StartChar: uF0656
Encoding: 984662 984662 87
Width: 480
Flags: HW
LayerCount: 2
Fore
SplineSet
439.07421875 284.39453125 m 5
 40.92578125 0 l 5
 40.92578125 568.788085938 l 5
 392.412109375 317.724609375 l 5
 439.07421875 284.39453125 l 5
240.791015625 325.354492188 m 5
 122.845703125 409.602539062 l 5
 122.845703125 325.354492188 l 5
 240.791015625 325.354492188 l 5
240.791015625 243.434570312 m 5
 122.845703125 243.434570312 l 5
 122.845703125 159.186523438 l 5
 240.791015625 243.434570312 l 5
EndSplineSet
EndChar

StartChar: uF0657
Encoding: 984663 984663 88
Width: 480
Flags: HW
LayerCount: 2
Fore
SplineSet
240 0 m 5
 -44.39453125 398.149414062 l 5
 524.39453125 398.149414062 l 5
 273.330078125 46.662109375 l 5
 240 0 l 5
280.958984375 198.284179688 m 5
 365.20703125 316.229492188 l 5
 280.958984375 316.229492188 l 5
 280.958984375 198.284179688 l 5
199.0390625 198.284179688 m 5
 199.0390625 316.229492188 l 5
 114.791015625 316.229492188 l 5
 199.0390625 198.284179688 l 5
EndSplineSet
EndChar

StartChar: uF0658
Encoding: 984664 984664 89
Width: 480
Flags: HW
LayerCount: 2
Fore
SplineSet
40.9248046875 284.39453125 m 5
 439.075195312 568.788085938 l 5
 439.075195312 0 l 5
 87.5869140625 251.064453125 l 5
 40.9248046875 284.39453125 l 5
239.208984375 243.434570312 m 5
 357.155273438 159.186523438 l 5
 357.155273438 243.434570312 l 5
 239.208984375 243.434570312 l 5
239.208984375 325.354492188 m 5
 357.155273438 325.354492188 l 5
 357.155273438 409.602539062 l 5
 239.208984375 325.354492188 l 5
EndSplineSet
EndChar

StartChar: uF0659
Encoding: 984665 984665 90
Width: 480
Flags: HW
LayerCount: 2
Fore
SplineSet
-5.759765625 409.599609375 m 1
 485.759765625 409.599609375 l 1
 485.759765625 368.639648438 l 1
 485.759765625 327.6796875 l 1
 485.759765625 9.576171875 l 1
 240 157.032226562 l 1
 -5.759765625 9.576171875 l 1
 -5.759765625 327.6796875 l 1
 -5.759765625 368.639648438 l 1
 -5.759765625 409.599609375 l 1
76.16015625 327.6796875 m 1
 76.16015625 154.26171875 l 1
 240 252.568359375 l 1
 403.83984375 154.26171875 l 1
 403.83984375 327.6796875 l 1
 76.16015625 327.6796875 l 1
EndSplineSet
EndChar

StartChar: uF065A
Encoding: 984666 984666 91
Width: 480
Flags: HW
LayerCount: 2
Fore
SplineSet
-5.759765625 409.599609375 m 1
 76.16015625 409.599609375 l 1
 76.16015625 98.8876953125 l 1
 199.040039062 221.767578125 l 1
 199.040039062 409.599609375 l 1
 280.959960938 409.599609375 l 1
 280.959960938 303.685546875 l 1
 386.874023438 409.599609375 l 1
 485.759765625 409.599609375 l 1
 485.759765625 0 l 1
 403.83984375 0 l 1
 403.83984375 310.711914062 l 1
 280.959960938 187.83203125 l 1
 280.959960938 0 l 1
 199.040039062 0 l 1
 199.040039062 105.9140625 l 1
 93.1259765625 0 l 1
 -5.759765625 0 l 1
 -5.759765625 409.599609375 l 1
EndSplineSet
EndChar

StartChar: uF065B
Encoding: 984667 984667 92
Width: 480
Flags: HW
LayerCount: 2
Fore
SplineSet
440.01171875 491.520507812 m 5
 440.01171875 0 l 5
 399.051757812 0 l 5
 358.091796875 0 l 5
 39.98828125 0 l 5
 187.444335938 245.759765625 l 5
 39.98828125 491.520507812 l 5
 358.091796875 491.520507812 l 5
 399.051757812 491.520507812 l 5
 440.01171875 491.520507812 l 5
358.091796875 409.600585938 m 5
 184.673828125 409.600585938 l 5
 282.98046875 245.759765625 l 5
 184.673828125 81.919921875 l 5
 358.091796875 81.919921875 l 5
 358.091796875 409.600585938 l 5
EndSplineSet
EndChar

StartChar: uF065C
Encoding: 984668 984668 93
Width: 480
Flags: HW
LayerCount: 2
Fore
SplineSet
485.759765625 0 m 5
 -5.759765625 0 l 5
 -5.759765625 40.9599609375 l 5
 -5.759765625 81.919921875 l 5
 -5.759765625 400.024414062 l 5
 240 252.568359375 l 5
 485.759765625 400.024414062 l 5
 485.759765625 81.919921875 l 5
 485.759765625 40.9599609375 l 5
 485.759765625 0 l 5
403.83984375 81.919921875 m 5
 403.83984375 255.337890625 l 5
 240 157.032226562 l 5
 76.16015625 255.337890625 l 5
 76.16015625 81.919921875 l 5
 403.83984375 81.919921875 l 5
EndSplineSet
EndChar

StartChar: uF065F
Encoding: 984671 984671 95
Width: 480
Flags: HW
LayerCount: 2
Fore
SplineSet
-5.759765625 491.520507812 m 5
 76.16015625 491.520507812 l 5
 76.16015625 286.719726562 l 5
 199.0390625 286.719726562 l 5
 199.0390625 491.520507812 l 5
 280.958984375 491.520507812 l 5
 280.958984375 286.719726562 l 5
 403.83984375 286.719726562 l 5
 403.83984375 491.520507812 l 5
 485.759765625 491.520507812 l 5
 485.759765625 327.6796875 485.759765625 204.799804688 485.759765625 0 c 5
 403.83984375 0 l 5
 403.83984375 204.799804688 l 5
 280.958984375 204.799804688 l 5
 280.958984375 0 l 5
 199.0390625 0 l 5
 199.0390625 204.799804688 l 5
 76.16015625 204.799804688 l 5
 76.16015625 0 l 5
 -5.759765625 0 l 5
 -5.759765625 204.799804688 -5.759765625 327.6796875 -5.759765625 491.520507812 c 5
EndSplineSet
EndChar

StartChar: uF0660
Encoding: 984672 984672 96
Width: 480
Flags: HW
LayerCount: 2
Fore
SplineSet
383.360351562 491.51953125 m 5
 383.360351562 0 l 5
 342.400390625 0 l 5
 301.440429688 0 l 5
 96.6396484375 0 l 5
 96.6396484375 81.919921875 l 5
 301.440429688 81.919921875 l 5
 301.440429688 204.799804688 l 5
 96.6396484375 204.799804688 l 5
 96.6396484375 286.719726562 l 5
 301.440429688 286.719726562 l 5
 301.440429688 409.599609375 l 5
 96.6396484375 409.599609375 l 5
 96.6396484375 491.51953125 l 5
 301.440429688 491.51953125 l 5
 342.400390625 491.51953125 l 5
 383.360351562 491.51953125 l 5
EndSplineSet
EndChar

StartChar: uF0661
Encoding: 984673 984673 97
Width: 480
Flags: HW
LayerCount: 2
Fore
SplineSet
485.759765625 0 m 1
 -5.759765625 0 l 1
 -5.759765625 40.9599609375 l 1
 -5.759765625 81.9208984375 l 1
 -5.759765625 286.720703125 l 1
 76.16015625 286.720703125 l 1
 76.16015625 81.9208984375 l 1
 199.0390625 81.9208984375 l 1
 199.0390625 286.720703125 l 1
 280.958984375 286.720703125 l 1
 280.958984375 81.9208984375 l 1
 403.83984375 81.9208984375 l 1
 403.83984375 286.720703125 l 1
 485.759765625 286.720703125 l 1
 485.759765625 81.9208984375 l 1
 485.759765625 40.9599609375 l 1
 485.759765625 0 l 1
EndSplineSet
EndChar

StartChar: uF0662
Encoding: 984674 984674 98
Width: 480
Flags: HW
LayerCount: 2
Fore
SplineSet
96.640625 0 m 5
 96.640625 491.51953125 l 5
 137.599609375 491.51953125 l 5
 178.560546875 491.51953125 l 5
 383.359375 491.51953125 l 5
 383.359375 409.599609375 l 5
 178.560546875 409.599609375 l 5
 178.560546875 286.719726562 l 5
 383.359375 286.719726562 l 5
 383.359375 204.799804688 l 5
 178.560546875 204.799804688 l 5
 178.560546875 81.919921875 l 5
 383.359375 81.919921875 l 5
 383.359375 0 l 5
 178.560546875 0 l 5
 137.599609375 0 l 5
 96.640625 0 l 5
EndSplineSet
EndChar

StartChar: uF065E
Encoding: 984670 984670 99
Width: 480
Flags: HW
LayerCount: 2
Fore
SplineSet
-5.759765625 286.719726562 m 1
 485.759765625 286.719726562 l 1
 485.759765625 245.759765625 l 1
 485.759765625 204.799804688 l 1
 485.759765625 0 l 1
 403.83984375 0 l 1
 403.83984375 204.799804688 l 1
 280.959960938 204.799804688 l 1
 280.959960938 0 l 1
 199.040039062 0 l 1
 199.040039062 204.799804688 l 1
 76.16015625 204.799804688 l 1
 76.16015625 0 l 1
 -5.759765625 0 l 1
 -5.759765625 204.799804688 l 1
 -5.759765625 245.759765625 l 1
 -5.759765625 286.719726562 l 1
EndSplineSet
EndChar

StartChar: uF0663
Encoding: 984675 984675 100
Width: 480
Flags: HW
LayerCount: 2
Fore
SplineSet
199.040039062 532.48046875 m 1
 280.959960938 532.48046875 l 1
 280.959960938 385.606445312 l 1
 432.803710938 233.763671875 l 1
 374.875976562 175.8359375 l 1
 280.959960938 269.751953125 l 1
 280.959960938 221.765625 l 1
 432.803710938 69.923828125 l 1
 374.875976562 11.99609375 l 1
 240 146.872070312 l 1
 105.124023438 11.99609375 l 1
 47.1962890625 69.923828125 l 1
 199.040039062 221.765625 l 1
 199.040039062 269.751953125 l 1
 105.124023438 175.8359375 l 1
 47.1962890625 233.763671875 l 1
 199.040039062 385.606445312 l 1
 199.040039062 532.48046875 l 1
EndSplineSet
EndChar

StartChar: uF0664
Encoding: 984676 984676 101
Width: 480
Flags: HW
LayerCount: 2
Fore
SplineSet
166.564453125 467.528320312 m 5
 240 394.091796875 l 5
 313.435546875 467.528320312 l 5
 371.36328125 409.599609375 l 5
 297.927734375 336.1640625 l 5
 400.326171875 233.763671875 l 5
 297.927734375 131.364257812 l 5
 371.36328125 57.927734375 l 5
 313.435546875 0 l 5
 240 73.4365234375 l 5
 166.564453125 0 l 5
 108.63671875 57.927734375 l 5
 182.072265625 131.364257812 l 5
 79.673828125 233.763671875 l 5
 182.072265625 336.1640625 l 5
 108.63671875 409.599609375 l 5
 166.564453125 467.528320312 l 5
240 278.236328125 m 5
 195.52734375 233.763671875 l 5
 240 189.291992188 l 5
 284.47265625 233.763671875 l 5
 240 278.236328125 l 5
EndSplineSet
EndChar

StartChar: uF0665
Encoding: 984677 984677 102
Width: 480
Flags: HW
LayerCount: 2
Fore
SplineSet
500.2421875 233.763671875 m 5
 500.2421875 151.84375 l 5
 353.368164062 151.84375 l 5
 201.526367188 0 l 5
 143.598632812 57.927734375 l 5
 237.514648438 151.84375 l 5
 189.528320312 151.84375 l 5
 37.6865234375 0 l 5
 -20.2421875 57.927734375 l 5
 114.633789062 192.803710938 l 5
 -20.2421875 327.6796875 l 5
 37.6865234375 385.607421875 l 5
 189.528320312 233.763671875 l 5
 237.514648438 233.763671875 l 5
 143.598632812 327.6796875 l 5
 201.526367188 385.607421875 l 5
 353.368164062 233.763671875 l 5
 500.2421875 233.763671875 l 5
EndSplineSet
EndChar

StartChar: uF0666
Encoding: 984678 984678 103
Width: 480
Flags: HW
LayerCount: 2
Fore
SplineSet
280.958984375 0 m 5
 199.0390625 0 l 5
 199.0390625 146.874023438 l 5
 47.1953125 298.715820312 l 5
 105.123046875 356.64453125 l 5
 199.0390625 262.728515625 l 5
 199.0390625 310.713867188 l 5
 47.1953125 462.555664062 l 5
 105.123046875 520.484375 l 5
 240 385.608398438 l 5
 374.875 520.484375 l 5
 432.8046875 462.555664062 l 5
 280.958984375 310.713867188 l 5
 280.958984375 262.728515625 l 5
 374.875 356.64453125 l 5
 432.8046875 298.715820312 l 5
 280.958984375 146.874023438 l 5
 280.958984375 0 l 5
EndSplineSet
EndChar

StartChar: uF0667
Encoding: 984679 984679 104
Width: 480
Flags: HW
LayerCount: 2
Fore
SplineSet
-20.2421875 151.844726562 m 5
 -20.2421875 233.764648438 l 5
 126.6328125 233.764648438 l 5
 278.474609375 385.608398438 l 5
 336.40234375 327.680664062 l 5
 242.486328125 233.764648438 l 5
 290.47265625 233.764648438 l 5
 442.314453125 385.608398438 l 5
 500.2421875 327.680664062 l 5
 365.365234375 192.8046875 l 5
 500.2421875 57.9287109375 l 5
 442.314453125 0 l 5
 290.47265625 151.844726562 l 5
 242.486328125 151.844726562 l 5
 336.40234375 57.9287109375 l 5
 278.474609375 0 l 5
 126.6328125 151.844726562 l 5
 -20.2421875 151.844726562 l 5
EndSplineSet
EndChar

StartChar: uF0668
Encoding: 984680 984680 105
Width: 480
Flags: HW
LayerCount: 2
Fore
SplineSet
-128.640625 450.559570312 m 1
 76.16015625 296.959960938 l 1
 240 419.83984375 l 1
 403.83984375 296.959960938 l 1
 608.640625 450.559570312 l 1
 608.640625 0 l 1
 567.6796875 0 l 1
 526.71875 0 l 1
 -46.720703125 0 l 1
 -87.6796875 0 l 1
 -128.640625 0 l 1
 -128.640625 450.559570312 l 1
240 317.440429688 m 1
 76.16015625 194.559570312 l 1
 -46.720703125 286.719726562 l 1
 -46.720703125 81.919921875 l 1
 526.71875 81.919921875 l 1
 526.71875 286.719726562 l 1
 403.83984375 194.559570312 l 1
 240 317.440429688 l 1
EndSplineSet
EndChar

StartChar: uF0669
Encoding: 984681 984681 106
Width: 480
Flags: HW
LayerCount: 2
Fore
SplineSet
166.564453125 672.328125 m 5
 400.326171875 438.563476562 l 5
 371.36328125 409.599609375 l 5
 236.48828125 274.723632812 l 5
 383.359375 274.723632812 l 5
 383.359375 192.803710938 l 5
 236.48828125 192.803710938 l 5
 371.36328125 57.927734375 l 5
 313.435546875 0 l 5
 79.673828125 233.763671875 l 5
 108.63671875 262.727539062 l 5
 243.51171875 397.603515625 l 5
 96.640625 397.603515625 l 5
 96.640625 479.5234375 l 5
 243.51171875 479.5234375 l 5
 108.63671875 614.399414062 l 5
 166.564453125 672.328125 l 5
EndSplineSet
EndChar

StartChar: uF066A
Encoding: 984682 984682 107
Width: 480
Flags: HW
LayerCount: 2
Fore
SplineSet
465.279296875 737.279296875 m 5
 311.6796875 532.479492188 l 5
 434.560546875 368.639648438 l 5
 311.6796875 204.799804688 l 5
 465.279296875 0 l 5
 14.720703125 0 l 5
 14.720703125 40.9599609375 l 5
 14.720703125 81.919921875 l 5
 14.720703125 655.359375 l 5
 14.720703125 696.319335938 l 5
 14.720703125 737.279296875 l 5
 465.279296875 737.279296875 l 5
332.16015625 368.639648438 m 5
 209.279296875 532.479492188 l 5
 301.439453125 655.359375 l 5
 96.640625 655.359375 l 5
 96.640625 81.919921875 l 5
 301.439453125 81.919921875 l 5
 209.279296875 204.799804688 l 5
 332.16015625 368.639648438 l 5
EndSplineSet
EndChar

StartChar: uF066B
Encoding: 984683 984683 108
Width: 480
Flags: HW
LayerCount: 2
Fore
SplineSet
608.640625 0 m 5
 403.83984375 153.600585938 l 5
 240 30.7197265625 l 5
 76.16015625 153.600585938 l 5
 -128.640625 0 l 5
 -128.640625 450.560546875 l 5
 -87.6796875 450.560546875 l 5
 -46.720703125 450.560546875 l 5
 526.720703125 450.560546875 l 5
 567.6796875 450.560546875 l 5
 608.640625 450.560546875 l 5
 608.640625 0 l 5
240 133.120117188 m 5
 403.83984375 256 l 5
 526.720703125 163.83984375 l 5
 526.720703125 368.639648438 l 5
 -46.720703125 368.639648438 l 5
 -46.720703125 163.83984375 l 5
 76.16015625 256 l 5
 240 133.120117188 l 5
EndSplineSet
EndChar
